<?xml version="1.0" standalone="no"?>
<!DOCTYPE svg PUBLIC "-//W3C//DTD SVG 20010904//EN"
 "http://www.w3.org/TR/2001/REC-SVG-20010904/DTD/svg10.dtd">
<svg version="1.0" xmlns="http://www.w3.org/2000/svg"
 width="1233.000000pt" height="1280.000000pt" viewBox="0 0 1233.000000 1280.000000"
 preserveAspectRatio="xMidYMid meet">
<metadata>
Created by potrace 1.15, written by Peter Selinger 2001-2017
</metadata>
<g transform="translate(0.000000,1280.000000) scale(0.100000,-0.100000)"
fill="#1e1e1e" stroke="none">
<path d="M5672 12068 l-502 -503 -380 380 -379 379 -31 -29 -31 -29 381 -381
380 -380 -1193 -1192 -1192 -1191 -315 109 c-173 60 -320 109 -326 109 -6 0
-16 -16 -22 -36 -10 -33 -9 -36 16 -45 15 -6 146 -51 292 -101 146 -50 271
-93 277 -97 8 -4 -18 -37 -75 -94 l-88 -87 -171 59 -172 60 -11 -35 c-7 -20
-8 -39 -4 -43 5 -5 73 -30 151 -57 l143 -49 -1077 -1077 -1078 -1078 48 -48
47 -48 -35 -34 -35 -34 147 -148 148 -148 -183 -183 -183 -183 31 -29 31 -29
182 182 182 182 160 -160 160 -160 -183 -183 -183 -183 31 -29 31 -29 182 182
182 182 160 -160 160 -160 -183 -183 -183 -183 30 -29 31 -28 182 182 182 182
168 -168 c92 -92 168 -172 168 -178 0 -5 159 -168 352 -362 l353 -353 -50 -50
-50 -50 -355 355 -356 356 -29 -31 -29 -31 354 -354 355 -355 -188 -188 -188
-188 31 -29 31 -29 272 272 272 272 65 -65 65 -65 -273 -273 -273 -273 29 -27
28 -27 187 187 187 188 313 -313 313 -313 29 31 29 31 -307 307 c-169 169
-307 312 -307 317 0 6 20 31 45 55 l45 45 313 -313 c172 -172 315 -311 318
-308 3 3 650 -640 1439 -1429 l1435 -1435 457 457 458 458 638 -638 638 -638
29 31 29 31 -637 637 -637 637 57 58 58 57 637 -637 638 -638 27 28 28 27
-633 633 c-347 347 -632 637 -632 642 0 5 665 675 1477 1487 l1478 1478 87
-87 88 -87 30 29 30 29 -87 88 -88 88 58 57 57 58 88 -88 88 -87 29 30 29 30
-87 88 -87 87 363 363 c199 199 367 362 372 362 5 0 101 -91 212 -202 l203
-203 27 28 28 27 -208 208 -207 207 387 387 388 388 -48 48 -47 48 35 34 36
34 -1771 1771 -1770 1770 229 229 229 229 58 -29 c156 -76 354 3 415 166 27
72 23 184 -9 247 -66 127 -219 196 -352 158 -30 -8 -61 -17 -68 -18 -24 -6
-104 -92 -130 -142 -23 -43 -27 -62 -27 -135 0 -73 4 -92 27 -136 l27 -51
-230 -229 -229 -229 -315 315 -315 315 182 182 182 182 -24 26 c-13 14 -28 25
-34 25 -6 0 -91 -80 -188 -177 l-178 -178 -332 332 -333 333 88 88 87 88 -30
29 -30 29 -88 -87 -88 -87 -49 50 -50 50 230 230 230 230 -30 30 -30 30 -230
-230 -230 -230 -365 365 -365 365 -503 -502z"/>
</g>
</svg>
